HIERARCHY
ROOT Hips
{
	OFFSET 0.000000 8.830580 0.000000
	CHANNELS 6 Xposition Yposition Zposition Zrotation Yrotation Xrotation 
	JOINT Spine
	{
		OFFSET 0.000000 0.010000 0.000000
		CHANNELS 3 Zrotation Yrotation Xrotation
		JOINT Spine1
		{
			OFFSET 0.000000 2.459130 0.000000
			CHANNELS 3 Zrotation Yrotation Xrotation
			JOINT Neck
			{
				OFFSET 0.000000 2.484630 0.000000
				CHANNELS 3 Zrotation Yrotation Xrotation
				JOINT Head_virtual
				{
					OFFSET 0.000000 0.000000 0.000000
					CHANNELS 3 Zrotation Yrotation Xrotation
					JOINT Head
					{
						OFFSET 0.000000 0.927525 0.000000
						CHANNELS 3 Zrotation Yrotation Xrotation
						End Site
						{
							OFFSET 0.000000 0.000000 0.000000
						}
					}
				}
				JOINT LeftUpArm_virtual
				{
					OFFSET 0.000000 0.000000 0.000000
					CHANNELS 3 Zrotation Yrotation Xrotation
					JOINT LeftUpArm
					{
						OFFSET 1.248820 0.000000 0.000000
						CHANNELS 3 Zrotation Yrotation Xrotation
						JOINT LeftForeArm
						{
							OFFSET 2.597580 0.000000 0.000000
							CHANNELS 3 Zrotation Yrotation Xrotation
							JOINT LeftHand
							{
								OFFSET 2.455420 0.000000 0.000000
								CHANNELS 3 Zrotation Yrotation Xrotation
								End Site
								{
									OFFSET 0.000000 0.000000 0.000000
								}
							}
						}
					}
				}
				JOINT RightUpArm_virtual
				{
					OFFSET -0.000000 -0.000000 -0.000000
					CHANNELS 3 Zrotation Yrotation Xrotation
					JOINT RightUpArm
					{
						OFFSET -1.248820 -0.000000 -0.000000
						CHANNELS 3 Zrotation Yrotation Xrotation
						JOINT RightForeArm
						{
							OFFSET -2.597580 -0.000000 -0.000000
							CHANNELS 3 Zrotation Yrotation Xrotation
							JOINT RightHand
							{
								OFFSET -2.455420 -0.000000 -0.000000
								CHANNELS 3 Zrotation Yrotation Xrotation
								End Site
								{
									OFFSET 0.000000 0.000000 0.000000
								}
							}
						}
					}
				}
			}
		}
	}
	JOINT LeftUpLeg
	{
		OFFSET 1.271939 0.000000 0.000000
		CHANNELS 3 Zrotation Yrotation Xrotation
		JOINT LeftLowLeg
		{
			OFFSET 0.000000 -4.342910 0.000000
			CHANNELS 3 Zrotation Yrotation Xrotation
			JOINT LeftFoot
			{
				OFFSET 0.000000 -4.487670 0.000000
				CHANNELS 3 Zrotation Yrotation Xrotation
				JOINT LeftToeBase
				{
					OFFSET 0.000000 0.000000 1.515070
					CHANNELS 3 Zrotation Yrotation Xrotation
					End Site
					{
						OFFSET 0.000000 0.000000 0.000000
					}
				}
			}
		}
	}
	JOINT RightUpLeg
	{
		OFFSET -1.271939 0.000000 0.000000
		CHANNELS 3 Zrotation Yrotation Xrotation
		JOINT RightLowLeg
		{
			OFFSET 0.000000 -4.342910 0.000000
			CHANNELS 3 Zrotation Yrotation Xrotation
			JOINT RightFoot
			{
				OFFSET 0.000000 -4.487670 0.000000
				CHANNELS 3 Zrotation Yrotation Xrotation
				JOINT RightToeBase
				{
					OFFSET 0.000000 0.000000 1.515070
					CHANNELS 3 Zrotation Yrotation Xrotation
					End Site
					{
						OFFSET 0.000000 0.000000 0.000000
					}
				}
			}
		}
	}
}
MOTION
Frames: 15
Frame Time: 0.041667
-16.270814 8.839362 31.865459 -160.681903 -68.992372 164.196837 4.990393 -2.136141 -16.710953 -2.184295 3.230161 9.462241 0.000000 0.000000 0.000000 47.505877 -14.893897 11.167759 -6.546128 27.370306 -79.061433 -10.975600 -1.692600 5.981520 -65.392403 -2.172120 -5.413030 180.000000 -88.492897 180.000000 50.025600 -60.161999 -179.684006 6.288120 -2.644730 2.401620 72.305000 -0.181719 -7.041992 180.000000 59.945000 180.000000 10.147400 -60.986401 -63.143799 0.789116 -32.809394 4.590858 0.000000 0.000000 22.083200 -1.706300 21.414068 -15.238623 0.000000 0.000000 -13.596010 -3.627455 34.103830 -24.200890 0.000000 0.000000 22.935101 13.973754 -7.540277 7.286434 0.000000 0.000000 -21.574710 
-16.354214 8.843768 31.754093 -157.975686 -70.200831 161.756442 5.313424 -2.530010 -16.856722 -2.137220 2.627103 9.222738 0.000000 0.000000 0.000000 47.191870 -14.649796 11.070063 -6.241535 27.358153 -79.049231 -10.558800 -1.423750 6.357930 -65.841698 -2.054470 -5.871260 180.000000 -86.241798 -180.000000 44.157200 -62.957100 -178.485001 5.928020 -2.441720 2.886490 72.263199 -0.887116 -6.684998 180.000000 58.126999 180.000000 6.857020 -56.335999 -55.034000 1.722836 -33.373576 3.876712 0.000000 0.000000 24.205099 -2.304980 20.830268 -15.459502 0.000000 0.000000 -14.392275 -2.252528 33.532790 -23.351345 0.000000 0.000000 23.117500 14.089198 -8.011317 6.508328 0.000000 0.000000 -21.108540 
-16.432201 8.858170 31.649029 -155.076167 -71.395796 158.689222 5.572097 -2.943034 -16.569484 -2.087897 2.022631 9.205796 0.000000 0.000000 0.000000 47.064227 -14.434439 10.865277 -6.320668 27.652745 -79.313155 -10.113500 -1.037490 6.273680 -66.368797 -1.908500 -7.116930 -180.000000 -83.767799 180.000000 34.745899 -64.854202 -167.520004 5.834030 -2.414930 2.972670 72.319504 -1.299120 -7.352997 180.000000 56.153999 180.000000 5.658120 -51.654400 -51.467499 2.589885 -33.360770 3.194229 0.000000 0.000000 26.760799 -2.907220 19.527087 -15.172084 0.000000 0.000000 -15.689539 -0.654548 32.999205 -22.000394 0.000000 0.000000 23.204500 13.492197 -8.766675 6.102268 0.000000 0.000000 -21.276920 
-16.504131 8.878379 31.548812 -152.280248 -72.633091 155.717225 5.547590 -3.422576 -16.211910 -1.717136 1.586542 9.054401 0.000000 0.000000 0.000000 46.768654 -14.267449 10.621317 -6.108568 27.672789 -79.381952 -9.883050 -0.884237 6.185870 -66.674202 -2.093510 -8.546740 -180.000000 -81.316002 180.000000 45.732700 -67.105904 -179.205002 5.689090 -2.531160 2.895380 72.345299 -1.424770 -8.187988 -180.000000 54.147003 -180.000000 3.253910 -48.282600 -51.436298 3.528613 -32.844862 2.014245 0.000000 0.000000 29.759300 -3.351929 17.780791 -14.273318 0.000000 0.000000 -17.662590 0.724154 32.357417 -20.563665 0.000000 0.000000 22.962700 12.945980 -9.534963 5.660998 0.000000 0.000000 -20.977080 
-16.569455 8.900456 31.457965 -149.274227 -73.886263 152.693556 5.657786 -3.740152 -15.957491 -1.710658 1.167560 8.867415 0.000000 0.000000 0.000000 46.521144 -14.191281 10.363020 -5.748734 27.623791 -79.116195 -9.597150 -0.782830 5.866670 -66.604401 -2.219430 -10.070600 -180.000000 -78.279999 180.000000 46.952801 -67.504402 179.483994 5.653870 -2.492180 2.824720 72.055496 -1.252050 -8.929993 180.000000 51.776001 -180.000000 -2.320690 -48.021500 -51.533600 4.660408 -31.774789 0.168619 0.000000 0.000000 33.203701 -3.853338 15.679797 -12.911817 0.000000 0.000000 -20.209450 1.825537 31.772819 -19.337962 0.000000 0.000000 22.519100 12.318332 -10.477697 5.336982 0.000000 0.000000 -20.566700 
-16.631000 8.922172 31.375938 -146.041136 -75.106914 149.523210 5.752623 -3.912870 -15.837183 -1.696311 0.923560 8.853379 0.000000 0.000000 0.000000 46.362964 -14.282167 9.883727 -5.449600 27.611307 -78.795664 -9.345520 -0.584046 5.294990 -66.295403 -2.504300 -12.140600 180.000000 -75.655998 -180.000000 46.402802 -69.168198 -179.044006 5.351850 -2.574920 2.542220 71.696403 -1.104140 -9.850006 180.000000 49.727005 180.000000 -9.815650 -47.691101 -48.129299 5.857456 -30.094639 -2.109902 0.000000 0.000000 36.932098 -4.602213 13.345401 -11.297526 0.000000 0.000000 -22.422480 2.673627 31.421898 -18.212870 0.000000 0.000000 21.813601 11.888076 -11.563994 5.138945 0.000000 0.000000 -20.686110 
-16.687858 8.942326 31.301634 -142.691795 -76.252294 146.265151 5.884131 -3.871049 -15.678387 -1.747788 0.849171 8.782112 0.000000 0.000000 0.000000 46.193078 -14.404573 9.507819 -5.349721 27.491853 -78.871332 -9.191300 -0.173983 4.519800 -65.512001 -2.974020 -13.111500 -180.000000 -73.290001 180.000000 48.698200 -69.698196 -179.899002 5.040950 -2.665990 2.347710 71.198097 -1.042960 -11.092987 -180.000000 48.065002 -180.000000 -17.548700 -46.543598 -42.200401 6.919463 -28.033766 -4.584388 0.000000 0.000000 40.787300 -6.309114 10.843976 -10.060162 0.000000 0.000000 -21.949140 3.331805 31.114392 -17.198249 0.000000 0.000000 21.068300 11.755215 -12.469891 4.894843 0.000000 0.000000 -20.589700 
-16.741073 8.959105 31.235120 -139.064719 -77.375977 142.663947 5.898618 -3.774302 -15.557194 -1.588105 0.948844 8.885678 0.000000 0.000000 0.000000 45.917814 -14.484238 9.220262 -5.331977 27.261884 -79.154317 -9.079120 -0.076347 4.181380 -64.741798 -3.794640 -14.527300 180.000000 -71.352997 180.000000 51.881500 -69.940201 178.709000 2.193200 -3.369310 1.591350 74.568604 -0.324306 -12.609985 180.000000 47.869003 180.000000 -26.664101 -47.881500 -27.069201 7.604265 -26.199658 -6.992592 0.000000 0.000000 44.621799 -8.129947 9.362257 -9.128717 0.000000 0.000000 -19.624560 3.915328 30.563622 -16.216805 0.000000 0.000000 20.416500 11.658697 -13.113594 4.622394 0.000000 0.000000 -20.508290 
-16.791154 8.971193 31.176271 -134.870548 -78.313654 138.406696 6.065900 -3.531053 -15.230112 -1.608894 1.041072 8.928866 0.000000 0.000000 0.000000 45.858391 -14.631568 9.041465 -5.579323 27.148702 -79.378748 -8.883530 0.142405 3.887060 -63.987701 -4.481870 -15.949000 180.000000 -69.690002 -180.000000 54.788700 -70.116699 175.957993 1.859160 -3.303750 1.533740 73.854401 -0.546766 -13.548004 -180.000000 47.082993 180.000000 -36.503899 -44.567799 -17.266701 8.282289 -23.672187 -9.248742 0.000000 0.000000 48.114601 -9.878528 8.140949 -8.759355 0.000000 0.000000 -16.955140 4.637652 29.356145 -15.234460 0.000000 0.000000 19.917999 11.389198 -13.109114 4.480183 0.000000 0.000000 -20.579910 
-16.838775 8.983508 31.121718 -130.940020 -79.177121 134.171415 6.125040 -3.177965 -14.787959 -1.765081 1.291553 9.232947 0.000000 0.000000 0.000000 46.156242 -14.865327 9.004860 -5.932760 27.231522 -79.499822 -7.891190 0.329710 3.448660 -65.846100 -4.708550 -18.916000 180.000000 -68.549004 -180.000000 38.082802 -73.464104 -167.056000 1.897740 -3.374650 1.559610 72.822197 -0.629886 -14.345001 -180.000000 46.960007 -180.000000 -45.410801 -40.853901 -10.559200 8.390697 -21.300393 -11.009939 0.000000 0.000000 51.002399 -10.456033 8.940012 -9.006205 0.000000 0.000000 -16.288890 5.253858 28.469273 -13.951212 0.000000 0.000000 19.164499 11.490219 -13.170129 4.257685 0.000000 0.000000 -20.656130 
-16.883677 8.996938 31.070691 -127.431926 -79.958656 130.325627 5.998218 -2.888022 -14.337499 -1.655039 1.640390 9.611216 0.000000 0.000000 0.000000 46.392916 -15.012373 9.252684 -6.217487 27.163698 -79.612840 -7.905920 0.467322 3.546110 -65.171204 -4.985550 -20.688499 -180.000000 -67.565002 180.000000 32.054600 -74.569901 -159.169998 1.980720 -3.434290 1.637980 71.815903 -0.764175 -15.027008 -180.000000 47.233994 -180.000000 -52.462101 -38.128300 -5.499010 8.231917 -18.946671 -12.507517 0.000000 0.000000 53.100899 -10.341045 10.573190 -9.525193 0.000000 0.000000 -15.601793 5.744773 27.492368 -12.799673 0.000000 0.000000 18.621201 11.376924 -13.054227 4.114509 0.000000 0.000000 -20.729910 
-16.928923 9.012247 31.024154 -124.329985 -80.813979 126.913100 5.753827 -2.571290 -13.939418 -1.625585 2.078711 9.984698 0.000000 0.000000 0.000000 46.905803 -15.309466 9.623703 -6.494023 27.124252 -79.489986 -8.093090 0.433916 3.655980 -64.427399 -4.853380 -22.185600 180.000000 -67.060997 -180.000000 29.570400 -75.543297 -154.688995 2.260170 -3.555850 1.850900 70.983101 -0.971715 -15.165985 -180.000000 48.132996 -180.000000 -59.137501 -34.090000 -1.251190 7.807027 -16.684382 -13.660741 0.000000 0.000000 54.149399 -10.258677 12.245830 -10.244732 0.000000 0.000000 -14.642505 5.973170 26.676167 -11.666962 0.000000 0.000000 17.973301 11.394204 -13.010079 3.923567 0.000000 0.000000 -20.925150 
-16.972716 9.026018 30.979417 -120.251357 -81.602468 122.608726 5.623597 -2.214918 -13.676016 -1.745834 2.483540 10.524398 0.000000 0.000000 0.000000 47.520278 -15.638179 9.838657 -6.731255 27.270046 -79.114808 -8.213050 0.341013 3.800120 -63.923599 -4.449360 -23.605200 180.000000 -66.962997 180.000000 24.471300 -75.980202 -147.223999 2.656770 -3.779740 2.027220 70.529701 -1.216220 -15.048004 180.000000 49.410995 180.000000 -64.194702 -30.477200 1.765250 7.293206 -14.606654 -15.027159 0.000000 0.000000 55.036701 -9.566722 14.507315 -10.416347 0.000000 0.000000 -13.994680 6.211056 25.486081 -10.719117 0.000000 0.000000 17.480301 11.298643 -12.696887 3.782218 0.000000 0.000000 -21.075740 
-17.017584 9.038640 30.939158 -115.267329 -82.344277 117.525844 5.437441 -1.983104 -13.339938 -1.689247 2.803068 10.680128 0.000000 0.000000 0.000000 48.014982 -15.933895 10.292046 -7.063036 27.163948 -78.992616 -8.604920 0.451876 4.200040 -63.370399 -3.972340 -24.183599 180.000000 -67.683998 -180.000000 30.248301 -75.760300 -151.570007 3.041750 -3.863470 2.389010 70.331596 -1.619790 -14.778015 180.000000 50.763000 180.000000 -67.380600 -28.703400 2.855300 6.713321 -12.948250 -16.275691 0.000000 0.000000 55.183998 -9.291472 16.237685 -10.330225 0.000000 0.000000 -13.803140 6.347873 24.028202 -9.938117 0.000000 0.000000 17.034100 11.199167 -12.087186 3.647777 0.000000 0.000000 -21.181750 
-17.064490 9.048379 30.904684 -109.455915 -83.053545 111.605888 5.215711 -2.059281 -13.300647 -1.405409 2.938737 11.407102 0.000000 0.000000 0.000000 48.006290 -15.910306 10.546033 -7.286824 27.041484 -79.051191 -9.059150 1.116830 3.850600 -62.846401 -3.347160 -23.981100 -180.000000 -69.182999 -180.000000 30.496799 -77.753998 -150.227997 3.030380 -3.617210 2.511800 70.751602 -1.918740 -14.165009 -180.000000 52.315002 180.000000 -69.226601 -28.667200 2.974700 6.118068 -11.436018 -17.053918 0.000000 0.000000 54.256401 -10.279982 16.282712 -10.449140 0.000000 0.000000 -14.061669 6.397135 22.592590 -9.236141 0.000000 0.000000 16.768600 11.175030 -11.450668 3.354440 0.000000 0.000000 -21.186470 
